<?xml version="1.0" standalone="no"?>
<!DOCTYPE svg PUBLIC "-//W3C//DTD SVG 20010904//EN"
 "http://www.w3.org/TR/2001/REC-SVG-20010904/DTD/svg10.dtd">
<svg version="1.0" xmlns="http://www.w3.org/2000/svg"
 width="420.000000pt" height="420.000000pt" viewBox="0 0 420.000000 420.000000"
 preserveAspectRatio="xMidYMid meet">

<g transform="translate(0.000000,420.000000) scale(0.100000,-0.100000)"
fill="#000000" stroke="none">
<path d="M1765 3429 c-99 -20 -192 -52 -285 -100 -168 -86 -246 -166 -340
-350 -72 -140 -103 -232 -136 -394 -43 -217 -80 -328 -212 -625 -111 -249
-113 -381 -10 -584 17 -34 44 -95 59 -136 l29 -75 -6 135 c-9 193 -20 184 219
190 102 3 188 7 190 10 3 3 -4 41 -15 84 l-20 80 20 205 21 206 41 38 c38 36
42 38 54 21 12 -16 17 -16 72 -1 33 9 97 22 144 28 77 11 93 10 165 -8 44 -11
86 -18 93 -15 21 8 9 45 -18 59 -24 12 -24 13 13 13 37 0 37 0 37 40 0 22 4
40 9 40 6 0 13 21 17 48 4 26 10 38 12 28 3 -14 6 -16 12 -6 6 10 14 1 27 -28
10 -23 21 -42 25 -42 3 0 9 -14 13 -30 10 -45 37 -55 160 -55 190 -2 188 -1
181 -29 -10 -41 15 -51 82 -32 123 34 222 31 345 -12 35 -12 50 -13 59 -4 8 8
18 7 39 -4 46 -23 76 -73 84 -139 4 -32 9 -68 11 -80 29 -141 29 -148 -3 -277
-17 -68 -29 -125 -27 -127 1 -2 83 -6 180 -9 169 -5 179 -6 201 -28 29 -29 29
-21 3 -509 l-20 -380 53 -117 52 -118 16 38 c31 73 42 141 34 216 -4 39 -9
157 -10 261 -3 195 -11 263 -46 396 l-21 77 22 42 c29 57 60 183 60 244 0 28
-7 78 -15 111 -8 33 -21 94 -29 135 -8 41 -41 150 -74 242 -44 119 -71 217
-96 340 -37 185 -75 325 -107 398 -47 106 -147 278 -191 325 -134 147 -415
268 -613 264 -145 -3 -313 -1 -415 5 -52 2 -117 0 -145 -5z m-20 -1125 c15
-15 29 -41 32 -59 l5 -33 -51 11 c-55 10 -63 25 -41 81 12 33 23 33 55 0z"/>
<path d="M1463 1985 c6 -15 3 -17 -25 -11 -25 5 -30 4 -20 -6 20 -20 14 -27
-20 -21 l-33 5 20 -22 20 -23 -39 5 c-38 4 -38 4 -17 -13 27 -22 27 -37 -1
-42 -17 -3 -15 -5 9 -6 17 0 35 -5 38 -11 3 -5 20 6 37 26 31 35 85 70 95 61
2 -3 0 -14 -6 -25 -28 -53 2 -152 56 -188 32 -21 135 -26 153 -8 9 9 5 10 -13
7 -40 -8 -40 14 0 41 42 29 62 21 42 -15 -11 -21 -11 -23 3 -11 25 21 48 77
48 118 l0 38 31 -30 c17 -16 37 -42 45 -59 l13 -30 1 36 c0 31 -9 44 -61 97
-79 78 -123 95 -251 90 -51 -1 -102 1 -112 6 -16 8 -18 6 -13 -9z m168 -61
c17 -21 0 -49 -32 -49 -27 0 -37 28 -19 50 16 19 34 19 51 -1z"/>
<path d="M2710 1990 c-9 -6 -50 -7 -101 -4 -120 9 -168 -8 -248 -88 -52 -53
-61 -66 -61 -97 l1 -36 13 30 c8 17 28 43 45 59 l31 30 0 -40 c0 -105 105
-183 195 -144 19 8 19 9 -2 9 -34 1 -28 23 13 49 25 17 39 21 47 13 7 -7 6
-15 -3 -26 -7 -8 -9 -15 -4 -15 36 2 68 125 44 169 -6 13 -9 25 -7 28 10 9 64
-26 95 -61 17 -20 34 -31 37 -26 3 6 21 11 38 11 24 1 26 3 10 6 -29 5 -29 20
-2 42 21 17 21 17 -17 13 l-39 -5 20 23 20 22 -33 -5 c-34 -6 -40 1 -20 21 10
10 5 11 -20 6 -27 -6 -31 -4 -26 10 7 18 -4 21 -26 6z m-200 -91 c0 -25 -38
-35 -59 -14 -15 15 -14 18 8 36 26 22 51 11 51 -22z"/>
<path d="M874 800 c2 -80 9 -158 14 -175 13 -37 4 231 -9 285 -5 22 -7 -17 -5
-110z"/>
<path d="M930 71 c0 -10 9 -30 21 -45 l21 -26 1125 2 1126 3 20 27 c28 37 19
42 -29 17 -39 -21 -44 -21 -719 -15 -374 3 -863 6 -1087 6 l-406 0 -30 25
c-36 30 -42 31 -42 6z"/>
</g>
</svg>
